<?xml version="1.0" encoding="UTF-8"?>
<!DOCTYPE svg PUBLIC "-//W3C//DTD SVG 1.1//EN" "http://www.w3.org/Graphics/SVG/1.1/DTD/svg11.dtd">
<!-- Creator: CorelDRAW -->
<svg xmlns="http://www.w3.org/2000/svg" xml:space="preserve" width="100mm" height="100mm" version="1.1" style="shape-rendering:geometricPrecision; text-rendering:geometricPrecision; image-rendering:optimizeQuality; fill-rule:evenodd; clip-rule:evenodd"
viewBox="0 0 10000 10000"
 xmlns:xlink="http://www.w3.org/1999/xlink"
 xmlns:xodm="http://www.corel.com/coreldraw/odm/2003">
 <defs>
  <style type="text/css">
   <![CDATA[
    .fil3 {fill:#E60000}
    .fil1 {fill:black;fill-rule:nonzero}
    .fil0 {fill:black;fill-rule:nonzero}
    .fil2 {fill:#E60000;fill-rule:nonzero}
   ]]>
  </style>
 </defs>
 <g id="Camada_x0020_1">
  <metadata id="CorelCorpID_0Corel-Layer"/>
  <g id="_1843358198992">
   <path class="fil0" d="M-4250.4 2479.4l0 2777.24 770.85 0 0 -2777.24 -770.85 0zm3060.65 1103.33l-1144.9 0 0 -483.64 1182.68 0 188.95 -619.69 -2142.43 0 -188.95 619.69 188.95 0 0 2157.55 2180.21 0 0 -619.69 -1409.41 0 0 -434.53 1144.9 0 0 -619.69z"/>
   <path class="fil1" d="M2351.24 2474.17l-2255.77 0 -188.94 619.68 759.47 0 0 2157.56 770.86 0 0 -2157.56 725.48 0 188.9 -619.68zm1915.76 1103.33l-1144.91 0 0 -483.65 1182.69 0 188.94 -619.68 -2142.43 0 -188.95 619.68 188.95 0 0 2157.56 2180.21 0 0 -619.69 -1409.41 0 0 -434.54 1144.91 0 0 -619.68zm2323.79 -11.33l721.69 -211.6c-192.69,-615.9 -740.56,-929.51 -1284.69,-929.51 -695.24,0 -1390.49,476.1 -1390.49,1435.85 0,955.96 698.99,1439.6 1398.03,1439.6 540.34,0 1084.46,-309.82 1277.15,-925.71l-721.69 -211.6c-86.89,340.06 -324.94,510.09 -563,510.09 -279.62,0 -555.45,-272.04 -555.45,-808.63 0,-536.55 279.62,-812.38 559.25,-812.38 238.05,0 472.31,173.83 559.2,513.89zm2437.17 -1092l0 1371.62 -751.94 -1371.62 -770.8 0 -188.94 619.68 188.94 0 0 2157.56 770.8 0 0 -1371.63 751.94 1371.63 770.81 0 0 -2777.24 -770.81 0zm3763.44 1386.74c0,-956 -699.04,-1435.85 -1398.07,-1435.85 -695.25,0 -1390.54,476.1 -1390.54,1435.85 0,955.96 699.04,1439.6 1398.07,1439.6 695.25,0 1390.54,-479.85 1390.54,-1439.6zm-838.87 3.75c0,536.59 -279.58,808.63 -559.2,808.63 -279.63,0 -555.46,-272.04 -555.46,-808.63 0,-536.55 279.62,-812.38 559.25,-812.38 279.58,0 555.41,272.04 555.41,812.38zm3181.58 767.06l-1333.85 0 0 -2157.55 -770.8 0 -188.95 619.68 188.95 0 0 2157.56 2104.65 0 0 -619.69zm2826.35 -770.81c0,-956 -699.04,-1435.85 -1398.08,-1435.85 -695.25,0 -1390.54,476.1 -1390.54,1435.85 0,955.96 699.04,1439.6 1398.08,1439.6 695.24,0 1390.54,-479.85 1390.54,-1439.6zm-838.88 3.75c0,536.59 -279.58,808.63 -559.2,808.63 -279.63,0 -555.46,-272.04 -555.46,-808.63 0,-536.55 279.63,-812.38 559.25,-812.38 279.58,0 555.41,272.04 555.41,812.38zm2184 -1390.49c-850.15,0 -1273.36,691.45 -1273.36,1386.74 0,695.25 423.21,1390.5 1273.36,1390.5l1054.23 0 0 -1341.39 -770.81 0 0 721.7 -56.69 0c-449.66,0 -672.59,-381.64 -672.59,-763.27 0,-385.43 226.72,-774.6 672.59,-774.6l676.38 0 188.89 -619.68 -1092 0zm1360.3 0l0 2777.24 770.85 0 0 -2777.24 -770.85 0zm2263.4 850.15l268.25 982.46 -540.34 0 272.09 -982.46zm-464.78 -850.15l-872.86 2777.24 808.63 0 90.68 -324.94 872.87 0 90.68 324.94 808.58 0 -872.81 -2777.24 -925.77 0z"/>
   <path class="fil0" d="M-4247.33 6307.02l0 1057.63 81.61 0 0 -1057.63 -81.61 0zm1778.75 0l0 920.15 -643.64 -920.15 -80.07 0 0 1057.63 80.07 0 0 -920.15 643.64 920.15 80.07 0 0 -1057.63 -80.07 0zm1541.56 -18.1c-302.19,0 -533.33,244.73 -533.33,546.92 0,302.18 231.14,548.44 533.33,548.44 302.19,0 534.86,-246.26 534.86,-548.44 0,-302.19 -232.67,-546.92 -534.86,-546.92zm0 1013.8c-256.87,0 -453.26,-208.53 -453.26,-466.88 0,-256.83 196.39,-466.85 453.26,-466.85 258.36,0 454.79,210.02 454.79,466.85 0,258.35 -196.43,466.88 -454.79,466.88zm2130.86 -995.7l-352.06 942.8 -350.53 -942.8 -86.12 0 394.36 1057.63 86.12 0 394.35 -1057.63 -86.12 0zm1606.56 1057.63l86.12 0 -394.35 -1057.63 -86.12 0 -394.36 1057.63 86.12 0 110.32 -296.14 481.96 0 110.31 296.14zm-562.08 -377.75l211.55 -563.52 210.02 563.52 -421.57 0zm1988.82 315.82c-256.87,0 -453.26,-208.53 -453.26,-466.88 0,-256.83 196.39,-466.85 453.26,-466.85 142.04,0 265.89,63.47 347.5,163.17l67.97 -43.83c-96.68,-122.36 -244.72,-199.41 -415.47,-199.41 -302.19,0 -533.33,244.73 -533.33,546.92 0,279.52 199.41,510.66 468.38,543.93l-46.85 96.68 34.75 43.83c75.56,-36.29 137.48,-7.58 137.48,57.41 0,83.1 -96.68,99.71 -179.77,60.44l-34.76 63.46c131.44,66.49 293.12,18.1 293.12,-120.87 0,-104.27 -98.22,-148.1 -184.34,-123.9l34.76 -72.54c4.51,0 7.53,0 10.56,0 170.75,0 318.79,-78.53 415.47,-199.41l-67.97 -45.36c-81.61,99.75 -205.46,163.21 -347.5,163.21zm2034.13 61.93l86.12 0 -394.36 -1057.63 -86.11 0 -394.36 1057.63 86.12 0 110.31 -296.14 481.97 0 110.31 296.14zm-562.08 -377.75l211.55 -563.52 210.02 563.52 -421.57 0zm352.06 -944.29c-6.05,40.81 -22.66,61.98 -54.39,61.98 -48.34,0 -116.36,-58.95 -178.28,-58.95 -65,0 -105.76,45.31 -116.37,122.41l66.49 10.56c6.05,-43.83 22.66,-66.49 52.9,-66.49 49.83,0 114.83,60.44 178.29,60.44 66.48,0 105.75,-45.32 117.85,-120.87l-66.49 -9.08zm1636.76 246.31c-302.19,0 -533.33,244.73 -533.33,546.92 0,302.18 231.14,548.44 533.33,548.44 302.18,0 534.86,-246.26 534.86,-548.44 0,-302.19 -232.68,-546.92 -534.86,-546.92zm0 1013.8c-256.88,0 -453.26,-208.53 -453.26,-466.88 0,-256.83 196.38,-466.85 453.26,-466.85 258.35,0 454.79,210.02 454.79,466.85 0,258.35 -196.44,466.88 -454.79,466.88zm1966.15 -18.14l0 -427.57 454.8 0 0 -80.08 -454.8 0 0 -388.3 489.55 0 0 -81.61 -569.62 0 0 1057.63 583.21 0 0 -80.07 -503.14 0zm2407.32 -977.56l-447.2 661.79 -448.75 -661.79 -80.07 0 0 1057.63 80.07 0 0 -906.51 429.11 637.59 37.78 0 429.06 -637.59 0 906.51 80.07 0 0 -1057.63 -80.07 0zm2452.64 0l-447.21 661.79 -448.74 -661.79 -80.08 0 0 1057.63 80.08 0 0 -906.51 429.11 637.59 37.78 0 429.06 -637.59 0 906.51 80.07 0 0 -1057.63 -80.07 0zm1133.62 977.56l0 -427.57 454.79 0 0 -80.08 -454.79 0 0 -388.3 489.55 0 0 -81.61 -569.62 0 0 1057.63 583.2 0 0 -80.07 -503.13 0zm1747.07 -977.56l-315.78 0 0 1057.63 315.78 0c302.18,0 521.27,-226.63 521.27,-528.81 0,-302.19 -219.09,-528.82 -521.27,-528.82zm0 977.56l-235.7 0 0 -895.95 235.7 0c258.36,0 441.16,190.38 441.16,447.21 0,258.35 -182.8,448.74 -441.16,448.74zm1449.39 -977.56l0 1057.63 81.61 0 0 -1057.63 -81.61 0zm1543.05 995.7c-256.87,0 -453.26,-208.53 -453.26,-466.88 0,-256.83 196.39,-466.85 453.26,-466.85 142.04,0 265.89,63.47 347.5,163.17l67.98 -43.83c-96.69,-122.36 -244.73,-199.41 -415.48,-199.41 -302.19,0 -533.33,244.73 -533.33,546.92 0,279.52 199.41,510.66 468.38,543.93l-46.85 96.68 34.75 43.83c75.56,-36.29 137.49,-7.58 137.49,57.41 0,83.1 -96.68,99.71 -179.78,60.44l-34.76 63.46c131.44,66.49 293.12,18.1 293.12,-120.87 0,-104.27 -98.22,-148.1 -184.34,-123.9l34.76 -72.54c4.51,0 7.53,0 10.56,0 170.75,0 318.79,-78.53 415.48,-199.41l-67.98 -45.36c-81.61,99.75 -205.46,163.21 -347.5,163.21zm2034.13 61.93l86.12 0 -394.35 -1057.63 -86.12 0 -394.36 1057.63 86.12 0 110.31 -296.14 481.97 0 110.31 296.14zm-562.08 -377.75l211.55 -563.52 210.02 563.52 -421.57 0zm352.06 -944.29c-6.05,40.81 -22.66,61.98 -54.39,61.98 -48.34,0 -116.36,-58.95 -178.28,-58.95 -65,0 -105.76,45.31 -116.37,122.41l66.49 10.56c6.05,-43.83 22.66,-66.49 52.9,-66.49 49.83,0 114.83,60.44 178.29,60.44 66.48,0 105.75,-45.32 117.85,-120.87l-66.49 -9.08zm1636.76 246.31c-302.19,0 -533.33,244.73 -533.33,546.92 0,302.18 231.14,548.44 533.33,548.44 302.18,0 534.86,-246.26 534.86,-548.44 0,-302.19 -232.68,-546.92 -534.86,-546.92zm0 1013.8c-256.87,0 -453.26,-208.53 -453.26,-466.88 0,-256.83 196.39,-466.85 453.26,-466.85 258.36,0 454.79,210.02 454.79,466.85 0,258.35 -196.43,466.88 -454.79,466.88z"/>
   <path class="fil0" d="M-4229.04 6325.31l0 1021.05 45.03 0 0 -1021.05 -45.03 0zm-36.58 1039.34l0 -1075.92 118.19 0 0 1094.21 -118.19 0 0 -18.29zm1815.33 -1039.34l0 959.75 -671.34 -959.75 -52.37 0 0 1021.05 43.49 0 0 -959.8 671.34 959.8 52.37 0 0 -1021.05 -43.49 0zm-36.58 843.96l0 -880.54 116.65 0 0 1094.21 -107.77 0 -615.94 -880.54 0 880.54 -116.65 0 0 -1094.21 107.82 0 615.89 880.54zm1559.85 -862.06c-145.02,0 -273.09,58.38 -365.12,152.7 -93.37,95.72 -149.92,228.79 -149.92,375.93 0,147.22 56.7,280.82 150.11,376.88 92.08,94.66 220.01,153.27 364.93,153.27 145.02,0 273.48,-58.7 365.89,-153.47 93.7,-96.1 150.69,-229.55 150.69,-376.68 0,-146.99 -56.89,-279.92 -150.5,-375.64 -92.41,-94.61 -220.96,-152.99 -366.08,-152.99zm-391.23 127.26c98.74,-101.24 236.03,-163.84 391.23,-163.84 155.3,0 293.02,62.65 392.15,164.03 100.18,102.4 161,244.35 161,401.18 0,156.87 -60.91,299.35 -161.15,402.13 -99.12,101.67 -236.8,164.6 -392,164.6 -155.15,0 -292.3,-62.88 -391.04,-164.41 -99.95,-102.78 -160.58,-245.35 -160.58,-402.32 0,-156.88 60.54,-298.98 160.39,-401.37zm391.23 886.54c-132.78,0 -250.15,-53.66 -334.54,-140.6 -85.3,-87.9 -137,-209.78 -137,-344.57 0,-134.22 51.84,-256.25 137.34,-344.34 84.34,-86.84 201.61,-140.8 334.2,-140.8 133.21,0 250.78,53.82 335.36,140.66 85.83,88.08 137.72,210.21 137.72,344.48 0,134.89 -51.75,256.82 -137.34,344.71 -84.63,86.84 -202.33,140.46 -335.74,140.46zm-308.43 -166.04c77.67,80.02 185.88,129.47 308.43,129.47 123.18,0 231.72,-49.4 309.63,-129.33 79.06,-81.22 126.87,-194.13 126.87,-319.27 0,-124.53 -47.95,-237.67 -127.26,-319.04 -77.91,-79.98 -186.25,-129.52 -309.24,-129.52 -122.36,0 -230.37,49.64 -308.09,129.66 -78.97,81.37 -126.88,194.42 -126.88,318.9 0,125.05 47.72,237.9 126.54,319.13zm2451.92 -829.66l-364.69 976.69 -363.15 -976.69 -47.24 0 380.72 1021.05 60.87 0 380.72 -1021.05 -47.23 0zm-364.64 872.33l339.39 -908.91 125.05 0c-136.43,364.5 -273.1,729.19 -407.99,1094.21l-111.42 0 -407.99 -1094.21 125.06 0 337.9 908.91zm1971.2 148.72l47.23 0 -380.72 -1021.05 -60.87 0 -380.72 1021.05 47.24 0 110.31 -296.14 507.26 0 110.27 296.14zm73.49 36.58l-98.74 0 -110.32 -296.14 -456.71 0 -110.27 296.14 -125.05 0 407.99 -1094.21 111.42 0c134.89,365.02 271.56,729.71 407.99,1094.21l-26.31 0zm-665.29 -402.37l228.74 -609.22 236.23 633.84 -474.19 0 9.22 -24.62zm228.6 -505.15l-185.16 493.2 368.97 0 -183.81 -493.2zm1777.31 845.59c-132.78,0 -250.15,-53.66 -334.54,-140.6 -85.31,-87.9 -137.01,-209.78 -137.01,-344.57 0,-134.22 51.85,-256.25 137.34,-344.34 84.35,-86.84 201.62,-140.8 334.21,-140.8 72.2,0 140.07,15.89 200.46,44.22 57.99,27.26 109.12,66 150.64,113.24l37.3 -24.1c-45.41,-53.04 -101.34,-96.39 -164.8,-126.83 -66.82,-32.11 -142.52,-50.02 -223.6,-50.02 -145.02,0 -273.1,58.38 -365.12,152.7 -93.37,95.72 -149.92,228.79 -149.92,375.93 0,135.08 48.2,258.64 128.79,352.25 80.51,93.51 193.61,157.45 323.51,173.54l25.34 3.12 -52.99 109.3 18.96 23.91c20.3,-8.07 39.7,-11.86 57.17,-11.86 18.72,0 35.67,4.32 49.92,12.39 14.69,8.3 26.36,20.59 33.75,36.05 6,12.48 9.31,26.98 9.31,43.15 0,16.47 -3.31,31.06 -9.21,43.64 -8.98,19.06 -23.96,33.17 -42.63,42.39 -17.67,8.69 -38.74,12.96 -61.01,12.96 -24.58,0 -51.32,-5.19 -77.19,-15.22l-17.43 31.78c31.49,13.1 64.33,19.54 95.48,19.54 31.44,0 61.06,-6.53 85.59,-19.11 23.86,-12.19 43.35,-30.34 55.21,-53.81 8.4,-16.66 13.2,-36.48 13.2,-59.14 0,-12.53 -1.59,-24.05 -4.37,-34.18 -7.2,-25.44 -22.71,-44.89 -42.58,-57.85 -20.4,-13.29 -45.84,-20.06 -72.15,-20.06 -14.07,0 -28.32,1.92 -42,5.76l-38.79 10.94 57.17 -119.34 21.99 0c80.6,0 155.92,-18.09 222.59,-50.02 63.94,-30.67 120.25,-74.35 165.95,-127.16l-37.63 -25.11c-41.48,47.14 -92.51,85.88 -150.45,113.05 -60.34,28.37 -128.22,44.26 -200.46,44.26zm-308.43 -166.04c77.67,80.02 185.87,129.47 308.43,129.47 66.87,0 129.51,-14.65 185.01,-40.71 57.84,-27.12 108.39,-67.02 148.33,-115.79l10.51 -12.82 98.27 65.58 -12.44 15.55c-51.17,63.99 -116.31,116.56 -191.34,152.56 -71.48,34.27 -151.84,53.62 -237.48,53.76l-14.4 30.1 15.17 -0.62c33.07,0 65.48,8.83 92.02,26.11 27.08,17.62 48.1,43.97 57.8,78.49 3.75,13.63 5.86,28.37 5.86,44.07 0,28.46 -6.24,53.81 -17.24,75.56 -15.55,30.72 -40.56,54.19 -71.14,69.84 -29.86,15.32 -65.24,23.24 -102.2,23.24 -42.2,0 -87.13,-10.28 -129.04,-31.49l-16.8 -8.55 52.09 -95.05 15.46 7.35c25.73,12.19 52.94,18.48 77.43,18.48 16.99,0 32.45,-3.03 44.88,-9.12 11.38,-5.62 20.45,-14.02 25.73,-25.2 3.6,-7.68 5.67,-17.09 5.67,-28.09 0,-10.56 -2.07,-19.82 -5.67,-27.41 -4.03,-8.64 -10.56,-15.55 -18.67,-20.11 -8.6,-4.85 -19.54,-7.49 -32.07,-7.49 -16.27,0 -35.04,4.46 -54.92,14.02l-13.15 6.29 -50.88 -64.14 40.99 -84.63c-128.65,-21.89 -240.6,-88.04 -321.68,-182.22 -86.21,-100.04 -137.72,-231.96 -137.72,-376.16 0,-156.88 60.53,-298.98 160.38,-401.37 98.75,-101.24 236.04,-163.84 391.24,-163.84 86.45,0 167.48,19.25 239.35,53.77 74.64,35.81 139.5,88.18 190.43,152.65l12.48 15.7 -98.55 63.56 -10.37 -12.58c-39.94,-48.77 -90.44,-88.62 -148.33,-115.79 -55.5,-26.06 -118.14,-40.66 -185.01,-40.66 -122.37,0 -230.38,49.64 -308.09,129.66 -78.97,81.37 -126.88,194.42 -126.88,318.9 0,125.05 47.72,237.9 126.54,319.13zm2355.19 191.39l47.23 0 -380.72 -1021.05 -60.87 0 -380.72 1021.05 47.23 0 110.32 -296.14 507.26 0 110.27 296.14zm73.49 36.58l-98.74 0 -110.32 -296.14 -456.71 0 -110.27 296.14 -125.05 0 407.99 -1094.21 111.42 0c134.89,365.02 271.56,729.71 407.99,1094.21l-26.31 0zm-665.29 -402.37l228.74 -609.22 236.23 633.84 -474.19 0 9.22 -24.62zm228.6 -505.15l-185.16 493.2 368.96 0 -183.8 -493.2zm155.1 -412.41c-3.99,15.46 -9.99,28.09 -18.24,37.74 -12.49,14.64 -29.24,22.13 -50.7,22.13 -26.59,0 -55.59,-13.93 -86.21,-28.61 -30.53,-14.65 -63.18,-30.34 -92.07,-30.34 -26.94,0 -48.83,9.17 -64.86,26.01 -14.21,14.93 -24.48,36.3 -30.29,63.03l30.53 4.85c3.89,-16.46 9.79,-29.9 17.76,-40.13 12.29,-15.74 28.76,-23.86 49.88,-23.86 27.65,0 56.36,14.31 86.69,29.43 30.1,14.98 62.27,31.01 91.6,31.01 27.41,0 49.15,-8.98 65.14,-25.35 14.3,-14.69 24.72,-35.66 31.06,-61.78l-30.29 -4.13zm-45.99 14.02c6.48,-7.54 10.85,-20.06 13.34,-37.06l2.69 -17.9 102.88 14.01 -2.98 18.49c-6.72,42.14 -21.65,76.27 -44.6,99.8 -22.99,23.57 -53.52,36.48 -91.25,36.48 -37.93,0 -74.07,-18 -107.92,-34.85 -26.35,-13.15 -51.27,-25.59 -70.37,-25.59 -9.12,0 -16.18,3.31 -21.17,9.75 -6.53,8.4 -11.09,22.22 -13.63,40.94l-2.55 18.39 -102.54 -16.27 2.41 -17.67c5.85,-42.63 20.59,-77 43.2,-100.76 23.09,-24.24 53.81,-37.44 91.26,-37.44 36.81,0 73.54,17.61 107.81,34.08 26.64,12.77 51.8,24.87 70.47,24.87 10.13,0 17.76,-3.17 22.95,-9.27zm1668.2 230.18c-145.03,0 -273.1,58.38 -365.13,152.7 -93.36,95.72 -149.91,228.79 -149.91,375.93 0,147.22 56.69,280.82 150.11,376.88 92.07,94.66 220,153.27 364.93,153.27 145.02,0 273.48,-58.7 365.88,-153.47 93.71,-96.1 150.69,-229.55 150.69,-376.68 0,-146.99 -56.89,-279.92 -150.49,-375.64 -92.41,-94.61 -220.97,-152.99 -366.08,-152.99zm-391.24 127.26c98.75,-101.24 236.04,-163.84 391.24,-163.84 155.29,0 293.01,62.65 392.14,164.03 100.19,102.4 161.01,244.35 161.01,401.18 0,156.87 -60.92,299.35 -161.15,402.13 -99.13,101.67 -236.81,164.6 -392,164.6 -155.15,0 -292.3,-62.88 -391.05,-164.41 -99.94,-102.78 -160.57,-245.35 -160.57,-402.32 0,-156.88 60.53,-298.98 160.38,-401.37zm391.24 886.54c-132.78,0 -250.15,-53.66 -334.55,-140.6 -85.3,-87.9 -137,-209.78 -137,-344.57 0,-134.22 51.84,-256.25 137.34,-344.34 84.34,-86.84 201.62,-140.8 334.21,-140.8 133.21,0 250.77,53.82 335.35,140.66 85.84,88.08 137.73,210.21 137.73,344.48 0,134.89 -51.75,256.82 -137.34,344.71 -84.63,86.84 -202.34,140.46 -335.74,140.46zm-308.43 -166.04c77.67,80.02 185.87,129.47 308.43,129.47 123.17,0 231.71,-49.4 309.62,-129.33 79.07,-81.22 126.88,-194.13 126.88,-319.27 0,-124.53 -47.96,-237.67 -127.26,-319.04 -77.91,-79.98 -186.26,-129.52 -309.24,-129.52 -122.37,0 -230.38,49.64 -308.1,129.66 -78.96,81.37 -126.87,194.42 -126.87,318.9 0,125.05 47.72,237.9 126.54,319.13zm2256.29 129.61l0 -445.86 454.8 0 0 -43.5 -454.8 0 0 -424.88 489.55 0 0 -45.03 -533.04 0 0 1021.05 546.63 0 0 -43.49 -503.14 0 0 -18.29zm36.58 -409.29l0 391 503.14 0 0 116.65 -619.79 0 0 -1094.21 606.2 0 0 118.19 -489.55 0 0 351.72 454.8 0 0 116.65 -454.8 0zm2398.73 -549.98l-456.86 676.04 -458.39 -676.04 -52.18 0 0 1021.05 43.49 0 0 -948.08 457.1 679.16 18.38 0 457.05 -679.16 0 948.08 43.49 0 0 -1021.05 -52.08 0zm-457 610.95l437.56 -647.53 108.1 0 0 1094.21 -116.65 0 0 -864.94 -401.12 596.02 -57.13 0 -401.12 -596.02 0 864.94 -116.65 0 0 -1094.21 107.96 0 439.05 647.53zm2909.63 -610.95l-456.85 676.04 -458.4 -676.04 -52.18 0 0 1021.05 43.5 0 0 -948.08 457.09 679.16 18.39 0 457.05 -679.16 0 948.08 43.49 0 0 -1021.05 -52.09 0zm-457 610.95l437.56 -647.53 108.11 0 0 1094.21 -116.65 0 0 -864.94 -401.13 596.02 -57.12 0 -401.12 -596.02 0 864.94 -116.66 0 0 -1094.21 107.97 0 439.04 647.53zm1562.64 348.32l0 -445.86 454.79 0 0 -43.5 -454.79 0 0 -424.88 489.55 0 0 -45.03 -533.04 0 0 1021.05 546.62 0 0 -43.49 -503.13 0 0 -18.29zm36.58 -409.29l0 391 503.13 0 0 116.65 -619.78 0 0 -1094.21 606.2 0 0 118.19 -489.55 0 0 351.72 454.79 0 0 116.65 -454.79 0zm1728.78 -549.98l-297.49 0 0 1021.05 297.49 0c145.45,0 270.93,-54.24 359.93,-144.54 89.82,-91.11 143.05,-219.28 143.05,-365.98 0,-146.71 -53.23,-274.88 -143.05,-365.99 -89,-90.3 -214.48,-144.54 -359.93,-144.54zm-315.78 -36.58l315.78 0c155.58,0 290.13,58.37 385.95,155.58 96.44,97.84 153.61,234.98 153.61,391.53 0,156.54 -57.17,293.69 -153.61,391.52 -95.82,97.21 -230.37,155.58 -385.95,155.58l-334.07 0 0 -1094.21 18.29 0zm315.78 1014.14l-253.99 0 0 -932.53 253.99 0c133.59,0 247.99,49.25 329.31,131.63 81.99,83.09 130.13,199.93 130.13,333.87 0,134.6 -48.1,251.73 -129.99,335.02 -81.27,82.71 -195.76,132.01 -329.45,132.01zm-217.42 -36.58l217.42 0c123.56,0 228.98,-45.17 303.43,-120.97 75.27,-76.52 119.44,-184.72 119.44,-309.48 0,-124.1 -44.22,-231.96 -119.58,-308.34 -74.46,-75.46 -179.83,-120.58 -303.29,-120.58l-217.42 0 0 859.37zm1685.1 -940.98l0 1021.05 45.03 0 0 -1021.05 -45.03 0zm-36.58 1039.34l0 -1075.92 118.19 0 0 1094.21 -118.19 0 0 -18.29zm1561.34 -43.64c-132.78,0 -250.15,-53.66 -334.54,-140.6 -85.31,-87.9 -137.01,-209.78 -137.01,-344.57 0,-134.22 51.85,-256.25 137.34,-344.34 84.35,-86.84 201.62,-140.8 334.21,-140.8 72.2,0 140.07,15.89 200.46,44.22 57.99,27.26 109.12,66 150.64,113.24l37.3 -24.1c-45.41,-53.04 -101.34,-96.39 -164.8,-126.83 -66.82,-32.11 -142.52,-50.02 -223.6,-50.02 -145.02,0 -273.1,58.38 -365.12,152.7 -93.37,95.72 -149.92,228.79 -149.92,375.93 0,135.08 48.2,258.64 128.8,352.25 80.5,93.51 193.6,157.45 323.5,173.54l25.3 3.12 -52.95 109.3 18.96 23.91c20.3,-8.07 39.7,-11.86 57.17,-11.86 18.72,0 35.72,4.37 49.93,12.39 14.68,8.3 26.35,20.59 33.74,36.05 6,12.48 9.32,26.98 9.32,43.15 0,16.47 -3.32,31.06 -9.22,43.64 -8.98,19.06 -23.96,33.17 -42.63,42.39 -17.66,8.69 -38.74,12.96 -61.01,12.96 -24.53,0 -51.27,-5.19 -77.19,-15.27l-17.43 31.83c31.49,13.1 64.33,19.54 95.48,19.54 31.44,0 61.06,-6.53 85.59,-19.11 23.86,-12.19 43.35,-30.34 55.21,-53.81 8.4,-16.66 13.2,-36.48 13.2,-59.14 0,-12.53 -1.58,-24.05 -4.37,-34.18 -7.2,-25.44 -22.71,-44.89 -42.58,-57.85 -20.4,-13.29 -45.84,-20.06 -72.15,-20.06 -14.06,0 -28.32,1.92 -42,5.76l-38.84 10.94 57.17 -119.34 22.04 0c80.6,0 155.92,-18.09 222.59,-50.02 63.95,-30.67 120.26,-74.35 165.96,-127.16l-37.64 -25.11c-41.48,47.14 -92.5,85.88 -150.45,113.05 -60.34,28.37 -128.22,44.26 -200.46,44.26zm-308.43 -166.04c77.67,80.02 185.87,129.47 308.43,129.47 66.87,0 129.51,-14.65 185.01,-40.71 57.84,-27.12 108.39,-67.02 148.33,-115.79l10.47 -12.82 98.26 65.58 -12.39 15.55c-51.17,63.99 -116.31,116.56 -191.34,152.56 -71.48,34.27 -151.84,53.62 -237.48,53.76l-14.4 30.1 15.17 -0.62c33.08,0 65.48,8.83 92.02,26.11 27.08,17.62 48.11,43.97 57.8,78.49 3.75,13.63 5.86,28.37 5.86,44.07 0,28.46 -6.24,53.81 -17.24,75.56 -15.55,30.72 -40.56,54.19 -71.14,69.84 -29.86,15.32 -65.24,23.24 -102.2,23.24 -42.19,0 -87.13,-10.28 -129.03,-31.49l-16.85 -8.55 52.08 -95.05 15.51 7.35c25.73,12.19 52.95,18.48 77.43,18.48 16.99,0 32.45,-3.03 44.88,-9.12 11.38,-5.62 20.45,-14.02 25.73,-25.2 3.6,-7.68 5.67,-17.09 5.67,-28.09 0,-10.56 -2.07,-19.82 -5.67,-27.41 -4.03,-8.64 -10.56,-15.55 -18.67,-20.11 -8.64,-4.85 -19.54,-7.49 -32.07,-7.49 -16.27,0 -35.04,4.46 -54.92,14.02l-13.2 6.29 -50.88 -64.14 41.04 -84.63c-128.65,-21.89 -240.6,-88.04 -321.67,-182.22 -86.22,-100.04 -137.73,-231.96 -137.73,-376.16 0,-156.88 60.53,-298.98 160.38,-401.37 98.75,-101.24 236.04,-163.84 391.24,-163.84 86.45,0 167.49,19.25 239.35,53.77 74.64,35.81 139.5,88.18 190.43,152.65l12.43 15.7 -98.55 63.56 -10.32 -12.58c-39.94,-48.77 -90.44,-88.62 -148.33,-115.79 -55.5,-26.06 -118.14,-40.66 -185.01,-40.66 -122.36,0 -230.37,49.64 -308.09,129.66 -78.97,81.37 -126.88,194.42 -126.88,318.9 0,125.05 47.72,237.9 126.54,319.13zm2355.19 191.39l47.23 0 -380.72 -1021.05 -60.87 0 -380.72 1021.05 47.24 0 110.26 -296.14 507.26 0 110.32 296.14zm73.49 36.58l-98.79 0 -110.27 -296.14 -456.71 0 -110.31 296.14 -125.05 0c136.42,-364.5 273.09,-729.19 407.98,-1094.21l111.42 0 407.99 1094.21 -26.26 0zm-665.29 -402.37l228.69 -609.22 236.23 633.84 -474.18 0 9.26 -24.62zm228.6 -505.15l-185.16 493.2 368.96 0 -183.8 -493.2zm155.1 -412.41c-3.99,15.46 -9.99,28.09 -18.24,37.74 -12.48,14.64 -29.14,22.13 -50.7,22.13 -26.59,0 -55.58,-13.93 -86.21,-28.61 -30.53,-14.65 -63.18,-30.34 -92.07,-30.34 -26.98,0 -48.82,9.17 -64.86,26.01 -14.21,14.93 -24.48,36.3 -30.29,63.03l30.53 4.85c3.94,-16.51 9.84,-29.95 17.76,-40.13 12.29,-15.74 28.81,-23.86 49.88,-23.86 27.7,0 56.36,14.31 86.7,29.43 30.09,14.98 62.26,31.01 91.59,31.01 27.41,0 49.15,-8.98 65.14,-25.35 14.31,-14.69 24.72,-35.66 31.06,-61.78l-30.29 -4.13zm-45.99 14.02c6.48,-7.54 10.85,-20.06 13.35,-37.06l2.64 -17.9 102.87 14.01 -2.93 18.49c-6.72,42.14 -21.65,76.27 -44.6,99.8 -22.99,23.57 -53.52,36.48 -91.25,36.48 -37.92,0 -74.07,-18 -107.92,-34.85 -26.35,-13.15 -51.26,-25.59 -70.37,-25.59 -9.12,0 -16.18,3.31 -21.17,9.75 -6.53,8.4 -11.09,22.22 -13.63,40.94l-2.59 18.39 -102.54 -16.27 2.45 -17.67c5.85,-42.63 20.59,-77 43.2,-100.76 23.09,-24.24 53.86,-37.44 91.26,-37.44 36.82,0 73.54,17.61 107.81,34.08 26.65,12.77 51.8,24.87 70.47,24.87 10.18,0 17.77,-3.17 22.95,-9.27zm1668.2 230.18c-145.02,0 -273.1,58.38 -365.12,152.7 -93.37,95.72 -149.92,228.79 -149.92,375.93 0,147.22 56.69,280.82 150.11,376.88 92.07,94.66 220,153.27 364.93,153.27 145.02,0 273.43,-58.66 365.89,-153.47 93.7,-96.1 150.68,-229.55 150.68,-376.68 0,-146.99 -56.88,-279.92 -150.49,-375.64 -92.41,-94.61 -220.97,-152.99 -366.08,-152.99zm-391.24 127.26c98.75,-101.24 236.04,-163.84 391.24,-163.84 155.29,0 293.01,62.65 392.14,164.03 100.19,102.4 161.01,244.35 161.01,401.18 0,156.87 -60.92,299.35 -161.15,402.13 -99.13,101.67 -236.81,164.6 -392,164.6 -155.15,0 -292.3,-62.88 -391.05,-164.41 -99.94,-102.78 -160.57,-245.35 -160.57,-402.32 0,-156.88 60.53,-298.98 160.38,-401.37zm391.24 886.54c-132.78,0 -250.15,-53.66 -334.55,-140.6 -85.3,-87.9 -137,-209.78 -137,-344.57 0,-134.22 51.85,-256.25 137.34,-344.34 84.34,-86.84 201.62,-140.8 334.21,-140.8 133.21,0 250.77,53.82 335.35,140.66 85.84,88.08 137.73,210.21 137.73,344.48 0,134.89 -51.75,256.82 -137.34,344.71 -84.63,86.84 -202.34,140.46 -335.74,140.46zm-308.43 -166.04c77.67,80.02 185.87,129.47 308.43,129.47 123.18,0 231.71,-49.4 309.62,-129.33 79.07,-81.22 126.88,-194.13 126.88,-319.27 0,-124.53 -47.96,-237.67 -127.26,-319.04 -77.91,-79.98 -186.26,-129.52 -309.24,-129.52 -122.37,0 -230.38,49.64 -308.09,129.66 -78.97,81.37 -126.88,194.42 -126.88,318.9 0,125.05 47.72,237.9 126.54,319.13z"/>
   <g>
    <path class="fil2" d="M-5522.29 8334.52l-2534 -6133.65 -490.93 524.21 2064.88 4998.14 423.73 1025.67 -6.63 2.72 764.01 118.02 -221.06 -535.11zm-1329.85 -364.69l-6244.69 -964.64 0.02 -0.01 -781.75 -120.76 -540.32 576.77 7858.09 1213.87 -291.35 -705.23zm-5884.47 -1349.17l3993.61 -4263.12 521.43 -556.76 -273.83 -662.8 -5022.96 5361.91 781.75 120.77z"/>
    <path class="fil2" d="M-9365.77 4436.91l2595.4 2589.11 416.18 -691.82 -2761.37 -2768.4 -250.21 871.11zm-212.37 -1187.86l-808.66 34.54 -1084.56 3344.78 893.59 -176.72 538.25 -1659.95 461.38 -1542.65zm1510.58 3244.38l-1601.83 318.61 -2033.77 408.44 634.47 680.09 3670.12 -729.98 -668.99 -677.16z"/>
    <polygon class="fil3" points="-9532.84,4940.05 -10060.36,6377.67 -8390.96,6081.59 "/>
    <path class="fil2" d="M-9365.77 4436.91l2595.4 2589.11 416.18 -691.82 -2761.37 -2768.4 -250.21 871.11zm-212.37 -1187.86l-808.66 34.54 -1084.56 3344.78 893.59 -176.72 538.25 -1659.95 461.38 -1542.65zm1510.58 3244.38l-1601.83 318.61 -2033.77 408.44 634.47 680.09 3670.12 -729.98 -668.99 -677.16z"/>
    <polygon class="fil3" points="-9532.84,4940.05 -10060.36,6377.67 -8390.96,6081.59 "/>
   </g>
  </g>
 </g>
</svg>
